<?xml version="1.0" encoding="UTF-8"?>
<!DOCTYPE svg PUBLIC "-//W3C//DTD SVG 1.1//EN" "http://www.w3.org/Graphics/SVG/1.1/DTD/svg11.dtd">
<svg xmlns="http://www.w3.org/2000/svg" version="1.1" width="460px" height="460px" style="shape-rendering:geometricPrecision; text-rendering:geometricPrecision; image-rendering:optimizeQuality; fill-rule:evenodd; clip-rule:evenodd" xmlns:xlink="http://www.w3.org/1999/xlink">
<g><path style="opacity:1" fill="#e78b1e" d="M -0.5,-0.5 C 152.833,-0.5 306.167,-0.5 459.5,-0.5C 459.5,152.833 459.5,306.167 459.5,459.5C 306.167,459.5 152.833,459.5 -0.5,459.5C -0.5,306.167 -0.5,152.833 -0.5,-0.5 Z"/></g>
<g><path style="opacity:1" fill="#030202" d="M 228.5,70.5 C 284.453,68.4003 330.287,88.7337 366,131.5C 370.237,139.116 369.07,145.616 362.5,151C 335.333,171.5 308.167,192 281,212.5C 264.749,188.974 243.582,183.14 217.5,195C 199.277,208.71 193.444,226.543 200,248.5C 212.69,272.896 232.19,280.729 258.5,272C 267.538,267.13 275.204,260.63 281.5,252.5C 311.975,275.141 342.308,297.974 372.5,321C 344.115,362.214 304.782,385.547 254.5,391C 198.093,394.439 151.593,374.939 115,332.5C 86.8725,296.01 75.5391,254.677 81,208.5C 90.6205,152.594 120.454,111.76 170.5,86C 189.108,77.7184 208.441,72.5517 228.5,70.5 Z"/></g>
<g><path style="opacity:1" fill="#fdfdfd" d="M 224.5,91.5 C 272.201,87.6693 312.201,103.169 344.5,138C 324.333,153.5 304.167,169 284,184.5C 263.466,167.666 240.633,163.833 215.5,173C 185.693,188.443 173.193,212.943 178,246.5C 186.671,277.232 206.838,293.899 238.5,296.5C 255.44,296.3 270.44,290.967 283.5,280.5C 303.923,294.755 323.923,309.588 343.5,325C 315.336,355.352 280.336,370.519 238.5,370.5C 187.987,369.176 148.82,347.509 121,305.5C 98.9706,267.742 94.3039,227.742 107,185.5C 128.703,131.929 167.87,100.596 224.5,91.5 Z"/></g>
</svg>
