<svg id="svg" version="1.1" xmlns="http://www.w3.org/2000/svg" xmlns:xlink="http://www.w3.org/1999/xlink" width="400" height="375.93123209169056" viewBox="0, 0, 400,375.93123209169056"><g id="svgg"><path id="path0" d="M69.721 112.807 C 69.585 113.027,69.567 113.302,69.682 113.416 C 70.008 113.743,72.556 113.166,72.556 112.765 C 72.556 112.272,70.029 112.309,69.721 112.807 M324.236 113.678 C 307.499 116.413,280.801 140.528,275.750 157.471 C 275.205 159.300,273.999 160.902,273.167 160.902 C 272.017 160.902,270.804 161.843,269.699 163.594 C 268.509 165.479,267.669 165.047,267.669 162.548 C 267.669 160.310,267.074 160.463,266.801 162.771 C 266.490 165.394,266.001 166.105,263.784 167.155 C 257.299 170.226,251.283 174.775,242.720 183.083 C 235.975 189.627,230.075 197.751,230.075 200.494 C 230.075 201.443,230.998 200.735,231.810 199.164 C 232.117 198.571,232.602 197.797,232.888 197.445 C 233.174 197.093,234.748 195.113,236.385 193.045 C 239.518 189.088,247.774 180.850,251.346 178.117 C 257.253 173.598,262.406 170.819,262.406 172.153 C 262.406 172.573,260.576 174.060,260.059 174.060 C 259.600 174.060,255.044 177.666,254.414 178.528 C 254.157 178.879,253.355 179.577,252.632 180.080 C 247.455 183.676,241.039 190.214,235.113 197.932 C 233.958 199.436,231.956 203.285,231.723 204.447 C 231.380 206.163,232.152 205.960,233.110 204.082 C 235.819 198.773,243.311 189.741,249.483 184.348 C 252.124 182.039,257.431 177.820,257.694 177.820 C 257.796 177.820,258.856 177.188,260.049 176.416 C 266.044 172.535,266.531 172.652,268.257 178.383 C 271.001 187.496,278.572 196.861,286.862 201.398 C 291.456 203.912,298.942 206.504,299.580 205.801 C 300.683 204.585,301.212 198.731,300.301 197.820 C 300.053 197.571,299.144 197.368,298.281 197.368 C 295.434 197.368,293.609 196.191,289.092 191.442 C 280.346 182.245,277.741 171.169,281.926 160.972 C 282.323 160.003,282.761 158.534,282.898 157.707 C 283.214 155.804,285.957 149.978,287.950 146.978 C 288.788 145.716,289.474 144.593,289.474 144.483 C 289.474 144.021,293.752 139.068,297.180 135.560 C 299.700 132.983,306.631 127.311,309.143 125.772 C 309.801 125.369,310.474 124.819,310.639 124.550 C 310.804 124.280,311.303 124.060,311.746 124.060 C 312.190 124.060,312.990 123.642,313.524 123.130 C 314.194 122.488,315.364 122.023,317.304 121.629 C 318.849 121.316,321.043 120.792,322.180 120.465 C 335.906 116.521,351.098 128.702,352.632 144.882 C 353.011 148.871,353.142 149.264,353.860 148.546 C 354.459 147.946,354.463 143.735,353.867 140.789 C 353.323 138.103,353.269 136.842,353.699 136.842 C 354.557 136.842,356.015 142.644,356.015 146.059 C 356.015 150.038,356.661 151.891,358.291 152.583 C 360.195 153.392,360.298 154.033,359.188 158.205 C 357.064 166.185,353.616 171.538,344.779 180.574 C 335.059 190.513,325.849 196.837,319.186 198.148 C 316.667 198.643,316.568 198.809,316.465 202.724 C 316.393 205.475,316.456 205.519,319.265 204.687 C 324.338 203.184,330.161 200.206,334.536 196.876 C 336.115 195.675,338.073 194.190,338.887 193.576 C 347.731 186.909,358.728 174.305,362.703 166.281 C 366.539 158.536,367.301 153.647,366.034 144.892 C 365.180 138.993,363.711 135.225,359.657 128.530 C 358.404 126.462,355.821 123.683,353.403 121.805 C 352.206 120.874,350.615 119.630,349.868 119.039 C 344.439 114.749,332.702 112.294,324.236 113.678 M78.383 115.370 C 75.376 116.755,74.617 120.248,76.805 122.636 C 79.412 125.483,83.296 125.191,85.161 122.008 C 87.908 117.322,83.507 113.012,78.383 115.370 M66.260 118.464 C 65.898 119.142,65.184 120.044,64.674 120.469 C 57.561 126.389,55.414 133.885,58.261 142.859 C 59.785 147.664,60.289 147.876,61.049 144.030 C 61.539 141.548,62.354 141.171,64.440 142.460 C 66.482 143.722,69.104 144.379,73.072 144.623 C 77.516 144.896,77.738 145.046,80.452 149.599 C 82.905 153.714,83.773 156.616,85.692 167.105 C 90.455 193.151,92.969 198.192,106.767 209.375 C 112.009 213.623,111.519 212.774,112.228 218.846 C 113.651 231.056,113.762 231.569,115.434 233.673 C 117.369 236.107,116.785 239.995,114.167 242.105 C 112.263 243.640,103.254 243.437,98.057 241.741 C 97.279 241.487,96.564 241.646,94.860 242.452 C 93.653 243.023,92.046 243.694,91.288 243.945 C 89.197 244.635,88.654 245.489,90.306 245.489 C 91.489 245.489,95.100 247.712,95.119 248.453 C 95.140 249.334,95.790 249.642,96.727 249.215 C 97.550 248.840,98.074 248.904,99.953 249.606 L 102.196 250.445 105.267 249.059 C 109.277 247.248,114.291 246.198,116.743 246.656 C 119.090 247.095,119.085 247.077,117.311 248.483 C 115.287 250.085,115.387 250.340,117.951 250.115 C 119.446 249.984,120.635 250.118,121.805 250.551 C 122.735 250.896,123.804 251.274,124.179 251.391 C 124.575 251.515,126.244 250.948,128.148 250.043 C 131.923 248.249,135.921 247.574,136.762 248.588 C 137.372 249.323,136.899 249.698,134.281 250.552 C 130.542 251.772,130.471 254.526,134.166 255.021 L 136.566 255.342 137.926 253.854 C 141.156 250.320,147.933 248.444,151.867 249.995 C 154.300 250.954,155.875 250.786,157.148 249.430 C 157.631 248.917,158.419 248.496,158.900 248.496 C 160.367 248.496,159.885 247.851,157.613 246.775 C 155.310 245.683,154.755 245.618,151.483 246.053 C 146.966 246.654,142.624 242.253,145.283 239.771 C 146.582 238.558,148.137 234.837,148.547 231.957 C 149.035 228.535,149.295 228.351,152.894 228.878 C 176.745 232.371,175.946 232.127,179.149 236.901 C 183.146 242.858,186.642 245.603,191.729 246.779 C 193.280 247.137,195.648 247.757,196.992 248.157 C 201.800 249.586,202.791 248.876,199.403 246.429 C 196.214 244.125,194.257 242.427,192.936 240.816 C 192.670 240.491,192.029 240.226,191.512 240.226 C 190.084 240.226,187.790 238.905,184.528 236.207 C 180.474 232.853,180.537 232.426,184.851 234.036 C 188.214 235.290,192.477 235.685,193.203 234.810 C 194.145 233.676,192.139 228.892,189.230 225.335 C 188.535 224.486,186.783 221.481,185.337 218.658 C 182.689 213.492,178.845 208.152,177.457 207.711 C 176.984 207.561,176.697 207.069,176.620 206.279 L 176.504 205.075 173.872 205.204 C 170.173 205.385,170.067 205.544,170.845 209.776 C 171.194 211.677,171.416 213.296,171.338 213.374 C 171.126 213.586,168.394 212.082,167.105 211.043 C 160.713 205.893,153.954 204.072,158.835 208.815 C 161.517 211.422,160.933 213.204,157.903 211.659 C 156.636 211.012,156.419 210.758,156.771 210.333 C 157.370 209.612,157.000 209.158,155.383 208.624 C 154.104 208.202,151.557 206.875,151.128 206.408 C 150.659 205.897,147.260 204.511,146.475 204.511 C 145.329 204.511,143.282 203.806,142.105 203.005 C 141.588 202.653,140.700 202.253,140.132 202.115 C 139.563 201.978,139.098 201.714,139.098 201.528 C 139.098 201.343,138.590 200.713,137.970 200.127 C 137.350 199.542,136.842 198.851,136.842 198.591 C 136.842 198.332,136.409 198.120,135.880 198.120 C 134.369 198.120,128.465 194.896,125.139 192.254 C 123.474 190.932,121.914 189.850,121.673 189.850 C 121.432 189.850,119.883 188.339,118.230 186.493 C 116.578 184.647,114.950 183.035,114.614 182.911 C 114.278 182.787,113.041 181.844,111.867 180.816 C 110.692 179.788,109.609 178.947,109.460 178.947 C 108.588 178.947,104.846 175.530,103.484 173.489 C 100.363 168.814,99.579 170.688,101.711 177.726 C 102.114 179.056,101.102 178.774,99.470 177.102 C 98.680 176.294,98.115 175.406,98.213 175.128 C 98.312 174.851,98.086 174.015,97.713 173.270 C 97.340 172.525,96.335 169.825,95.481 167.269 C 94.626 164.713,93.500 161.607,92.978 160.366 C 92.294 158.742,92.083 157.701,92.223 156.652 C 92.359 155.639,92.084 154.154,91.322 151.783 C 90.719 149.906,90.226 148.087,90.226 147.741 C 90.226 146.984,85.632 142.481,84.860 142.481 C 81.737 142.481,74.783 137.282,73.533 134.013 C 73.140 132.984,72.605 131.889,72.343 131.579 C 71.422 130.488,70.333 127.002,70.559 125.871 C 70.680 125.264,70.583 124.397,70.342 123.944 C 69.986 123.273,70.041 122.853,70.642 121.678 C 71.677 119.657,71.466 119.393,67.200 117.365 C 67.045 117.291,66.622 117.786,66.260 118.464 M112.406 128.887 C 112.406 129.642,112.781 130.392,113.534 131.145 C 114.154 131.765,114.662 132.436,114.662 132.635 C 114.662 133.822,116.209 135.696,117.199 135.709 C 117.891 135.717,117.775 135.196,116.823 134.012 C 116.358 133.434,115.375 131.857,114.639 130.508 C 113.116 127.717,112.406 127.202,112.406 128.887 M282.296 166.070 C 281.574 167.969,282.398 175.463,283.578 177.722 C 283.875 178.293,284.351 179.267,284.635 179.887 C 285.409 181.580,291.066 187.071,295.165 190.109 C 297.158 191.585,298.904 192.980,299.044 193.207 C 299.481 193.913,300.000 193.247,299.994 191.989 C 299.987 190.489,299.685 190.024,298.496 189.677 C 296.629 189.133,292.255 186.705,290.485 185.232 C 287.945 183.117,282.957 175.359,283.363 174.154 C 283.870 172.651,288.252 174.348,292.288 177.610 C 295.850 180.490,295.928 179.394,292.476 174.965 C 291.846 174.157,290.956 172.991,290.496 172.374 C 289.183 170.608,283.572 165.038,283.108 165.038 C 282.877 165.038,282.512 165.502,282.296 166.070 M276.345 188.469 C 276.741 189.125,278.842 191.255,281.013 193.203 C 285.406 197.144,285.561 197.395,282.783 196.055 C 279.963 194.694,274.060 188.476,274.060 186.865 C 274.060 186.119,275.562 187.174,276.345 188.469 M312.949 211.301 C 312.291 212.028,312.213 212.037,311.773 211.435 C 311.145 210.577,310.692 210.973,308.132 214.616 C 298.263 228.655,281.930 243.736,271.696 248.258 C 255.354 255.479,238.335 252.592,225.615 240.443 C 221.898 236.893,216.628 228.150,216.490 225.304 C 216.447 224.422,216.412 224.387,216.276 225.091 C 215.119 231.096,224.365 245.686,232.886 251.301 C 250.914 263.181,271.587 259.759,291.443 241.609 C 293.519 239.711,295.890 237.566,296.711 236.842 C 302.687 231.576,310.904 219.913,312.966 213.769 C 314.039 210.574,314.035 210.101,312.949 211.301 M130.578 225.120 C 130.918 225.496,131.518 226.723,131.910 227.846 C 132.302 228.969,133.234 231.151,133.981 232.696 C 134.727 234.241,135.338 235.712,135.338 235.964 C 135.338 236.216,136.269 237.226,137.406 238.208 C 141.744 241.953,139.229 245.460,131.726 246.130 C 129.541 246.325,129.395 246.285,128.719 245.302 C 127.307 243.252,126.308 242.403,125.641 242.684 C 122.518 244.004,119.944 243.098,119.660 240.578 C 119.444 238.660,119.971 237.976,122.218 237.255 C 123.773 236.756,126.894 231.545,128.048 227.520 C 128.950 224.372,129.462 223.887,130.578 225.120 " stroke="none" fill="#58543f" fill-rule="evenodd"></path><path id="path1" d="M0.000 187.970 L 0.000 375.940 200.000 375.940 L 400.000 375.940 400.000 187.970 L 400.000 0.000 200.000 0.000 L 0.000 0.000 0.000 187.970 M332.011 103.938 C 358.545 105.861,375.900 135.253,366.136 161.734 C 360.080 178.159,337.596 199.998,321.153 205.427 C 317.123 206.757,316.832 207.054,315.409 211.278 C 309.935 227.533,289.111 249.161,272.553 255.788 C 234.973 270.829,201.400 233.888,218.980 196.840 C 226.405 181.193,248.536 161.277,263.249 156.999 C 265.997 156.200,266.630 155.487,267.655 152.034 C 270.751 141.603,279.857 129.675,293.609 118.033 C 304.300 108.983,311.549 105.456,322.461 103.997 C 325.757 103.556,326.658 103.550,332.011 103.938 M90.789 107.509 C 91.823 107.679,93.623 107.994,94.789 108.206 C 100.335 109.219,106.516 114.365,111.572 122.180 C 115.435 128.153,116.047 129.133,118.406 133.130 C 122.577 140.198,127.380 145.658,133.248 150.000 C 134.225 150.724,135.646 151.837,136.404 152.473 C 137.162 153.110,138.564 154.161,139.520 154.808 C 142.374 156.741,149.752 164.268,151.658 167.190 C 152.632 168.683,153.799 170.206,154.252 170.573 C 154.705 170.940,155.553 171.880,156.137 172.661 C 156.720 173.443,157.504 174.373,157.878 174.729 C 158.476 175.298,161.227 178.676,164.373 182.707 C 165.436 184.068,171.096 192.353,171.429 193.035 C 171.533 193.247,172.449 194.690,173.466 196.241 C 174.483 197.791,176.381 201.055,177.685 203.493 C 178.988 205.930,180.788 208.891,181.686 210.071 C 184.020 213.143,184.931 214.703,186.842 218.895 C 189.530 224.791,194.063 229.883,203.906 238.059 C 204.689 238.709,205.006 239.322,205.039 240.252 C 205.103 242.057,205.826 243.014,208.729 245.137 C 213.887 248.909,213.261 251.008,207.232 250.157 C 206.046 249.989,203.466 249.902,201.498 249.964 C 192.244 250.253,183.973 245.726,178.185 237.203 C 175.523 233.283,175.340 233.227,155.856 230.430 C 149.953 229.583,150.198 229.499,149.795 232.501 C 149.439 235.151,147.944 238.668,146.571 240.084 C 144.054 242.681,148.219 246.058,152.425 244.830 C 154.565 244.206,156.070 244.505,159.151 246.167 C 162.788 248.130,163.238 250.000,160.074 250.000 C 158.823 250.000,157.859 250.242,157.178 250.727 C 155.504 251.919,154.458 251.990,151.863 251.092 C 147.579 249.610,142.595 250.950,138.855 254.592 L 136.920 256.476 133.888 256.208 C 130.172 255.879,129.862 255.592,130.417 253.003 C 131.075 249.937,130.860 249.768,128.097 251.178 C 125.374 252.567,124.555 252.668,122.512 251.862 C 120.299 250.990,118.093 250.916,117.083 251.680 C 115.189 253.112,113.842 251.845,114.709 249.447 C 114.969 248.728,115.060 248.018,114.912 247.870 C 114.416 247.373,108.110 248.850,105.733 250.019 C 103.272 251.230,101.051 251.516,99.705 250.795 C 98.527 250.165,97.457 250.287,96.593 251.151 C 95.532 252.212,94.578 251.953,94.426 250.561 C 94.174 248.262,91.545 246.304,89.872 247.169 C 87.500 248.395,86.567 247.705,87.484 245.404 C 87.887 244.394,88.459 243.821,89.601 243.284 C 96.111 240.224,96.014 240.242,100.752 241.129 C 110.674 242.987,114.602 242.070,115.251 237.746 C 115.521 235.943,115.314 235.311,113.761 233.191 C 112.740 231.797,112.009 227.961,111.165 219.570 L 110.618 214.140 109.322 212.991 C 108.610 212.359,105.911 210.044,103.325 207.846 C 92.693 198.808,89.035 191.688,85.718 173.578 C 82.630 156.717,82.039 154.577,79.078 149.525 C 77.074 146.108,76.721 145.865,73.760 145.865 C 70.519 145.865,67.799 145.264,65.133 143.960 C 62.433 142.640,62.030 142.736,62.030 144.703 C 62.030 151.542,57.634 148.071,56.424 140.276 C 55.107 131.784,56.494 126.901,61.718 121.649 C 63.346 120.012,64.770 118.235,64.881 117.701 C 66.477 110.043,78.207 105.428,90.789 107.509 M321.026 109.426 C 314.191 109.992,305.219 113.275,301.316 116.639 C 300.489 117.352,299.305 118.204,298.684 118.533 C 297.154 119.346,291.224 124.468,286.696 128.889 C 277.388 137.975,272.570 144.836,270.707 151.658 C 269.387 156.487,270.200 156.458,274.107 151.535 C 284.069 138.986,292.090 130.606,301.718 122.689 C 308.187 117.370,318.285 112.476,324.812 111.495 C 325.742 111.356,326.927 111.007,327.444 110.721 L 328.383 110.200 326.986 109.612 C 326.217 109.288,325.371 109.046,325.106 109.075 C 324.841 109.104,323.005 109.262,321.026 109.426 M322.151 122.111 C 311.217 124.665,292.651 140.808,286.352 153.239 C 285.206 155.499,285.353 155.812,287.995 156.745 C 302.248 161.780,311.933 171.471,315.974 184.744 C 316.704 187.140,316.889 187.418,317.831 187.529 C 320.183 187.805,330.129 180.424,337.030 173.282 C 338.891 171.357,341.022 169.179,341.765 168.443 C 347.348 162.916,351.495 153.284,351.501 145.831 C 351.514 130.266,337.102 118.620,322.151 122.111 M353.315 158.459 C 353.080 158.976,352.760 159.398,352.604 159.398 C 352.449 159.398,351.518 160.794,350.535 162.500 C 346.021 170.338,335.883 181.060,325.247 189.245 C 317.792 194.982,316.841 197.150,322.706 195.039 C 336.389 190.112,358.424 164.879,354.859 158.218 C 354.346 157.260,353.824 157.342,353.315 158.459 M260.526 161.807 C 252.945 164.492,244.029 171.031,234.004 181.258 C 228.692 186.678,227.338 188.275,223.948 193.117 C 214.528 206.574,214.630 225.344,224.181 235.929 C 238.754 252.077,256.667 254.923,275.350 244.059 C 282.100 240.133,295.871 227.742,301.008 220.972 C 303.903 217.156,304.762 215.895,306.287 213.229 C 313.874 199.960,313.557 189.837,305.120 175.974 C 301.820 170.551,293.674 164.280,290.513 164.729 C 289.294 164.902,289.199 166.314,290.334 167.379 C 295.766 172.476,296.674 173.557,298.476 177.063 C 304.507 188.805,304.276 203.370,297.892 213.919 C 291.886 223.841,276.000 238.535,266.729 242.743 C 246.389 251.976,224.953 238.545,225.221 216.734 C 225.408 201.470,228.978 193.777,241.692 181.245 C 249.368 173.678,255.112 169.272,261.580 165.990 L 265.077 164.215 264.964 162.653 C 264.821 160.699,264.063 160.555,260.526 161.807 M285.338 175.391 C 285.338 178.889,296.232 189.608,297.995 187.845 C 299.401 186.438,291.254 177.116,287.102 175.382 C 285.413 174.676,285.338 174.677,285.338 175.391 M261.364 177.016 C 252.975 182.058,240.861 193.872,236.121 201.635 C 222.350 224.187,241.537 248.500,265.691 239.103 C 275.518 235.280,293.221 218.253,297.154 208.841 C 297.855 207.163,297.607 206.925,293.773 205.590 C 280.812 201.078,270.861 190.904,267.162 178.383 C 266.030 174.550,265.626 174.455,261.364 177.016 M129.141 228.408 C 126.891 234.162,124.450 237.836,122.535 238.352 C 120.998 238.765,120.557 239.429,120.902 240.806 C 121.204 242.008,122.216 242.262,124.437 241.693 C 126.774 241.094,127.814 241.515,129.126 243.595 C 130.220 245.328,130.756 245.427,134.393 244.572 C 138.560 243.592,139.238 241.870,136.545 239.106 C 135.212 237.737,134.220 236.104,132.730 232.820 C 129.926 226.643,129.862 226.564,129.141 228.408 " stroke="none" fill="#fbfbfb" fill-rule="evenodd"></path><path id="path2" d="M76.698 108.476 C 70.956 110.218,66.445 113.727,66.095 116.723 C 65.936 118.087,66.110 118.326,66.777 117.659 C 67.784 116.653,71.531 119.607,71.004 120.992 C 69.954 123.755,70.696 129.627,72.343 131.579 C 72.605 131.889,73.140 132.984,73.533 134.013 C 74.783 137.282,81.737 142.481,84.860 142.481 C 85.632 142.481,90.226 146.984,90.226 147.741 C 90.226 148.087,90.719 149.906,91.322 151.783 C 92.084 154.154,92.359 155.639,92.223 156.652 C 92.083 157.701,92.294 158.742,92.978 160.366 C 93.500 161.607,94.626 164.713,95.481 167.269 C 96.335 169.825,97.340 172.525,97.713 173.270 C 98.086 174.015,98.312 174.851,98.213 175.128 C 98.115 175.406,98.680 176.294,99.470 177.102 C 101.102 178.774,102.114 179.056,101.711 177.726 C 99.579 170.688,100.363 168.814,103.484 173.489 C 104.846 175.530,108.588 178.947,109.460 178.947 C 109.609 178.947,110.692 179.788,111.867 180.816 C 113.041 181.844,114.278 182.787,114.614 182.911 C 114.950 183.035,116.578 184.647,118.230 186.493 C 119.883 188.339,121.432 189.850,121.673 189.850 C 121.914 189.850,123.474 190.932,125.139 192.254 C 128.465 194.896,134.369 198.120,135.880 198.120 C 136.409 198.120,136.842 198.332,136.842 198.591 C 136.842 198.851,137.350 199.542,137.970 200.127 C 138.590 200.713,139.098 201.343,139.098 201.528 C 139.098 201.714,139.563 201.978,140.132 202.115 C 140.700 202.253,141.588 202.653,142.105 203.005 C 143.282 203.806,145.329 204.511,146.475 204.511 C 147.260 204.511,150.659 205.897,151.128 206.408 C 151.557 206.875,154.104 208.202,155.383 208.624 C 157.000 209.158,157.370 209.612,156.771 210.333 C 156.419 210.758,156.636 211.012,157.903 211.659 C 160.933 213.204,161.517 211.422,158.835 208.815 C 153.954 204.072,160.713 205.893,167.105 211.043 C 168.394 212.082,171.126 213.586,171.338 213.374 C 171.416 213.296,171.194 211.677,170.845 209.776 C 170.067 205.544,170.173 205.385,173.872 205.204 L 176.504 205.075 176.620 206.279 C 176.697 207.069,176.984 207.561,177.457 207.711 C 178.845 208.152,182.689 213.492,185.337 218.658 C 186.783 221.481,188.535 224.486,189.230 225.335 C 192.139 228.892,194.145 233.676,193.203 234.810 C 192.477 235.685,188.214 235.290,184.851 234.036 C 180.537 232.426,180.474 232.853,184.528 236.207 C 187.790 238.905,190.084 240.226,191.512 240.226 C 192.029 240.226,192.670 240.491,192.936 240.816 C 194.252 242.420,196.196 244.109,199.396 246.429 C 200.537 247.256,201.520 248.176,201.582 248.473 C 201.732 249.202,210.483 249.793,211.156 249.120 C 211.489 248.787,209.673 246.894,207.445 245.252 C 205.440 243.774,204.135 241.901,204.135 240.500 C 204.135 239.586,200.940 236.372,195.599 231.914 C 193.340 230.029,188.485 223.863,187.343 221.429 C 184.585 215.548,182.979 212.672,180.593 209.344 C 179.948 208.444,178.441 205.930,177.245 203.759 C 176.048 201.588,173.700 197.651,172.027 195.009 C 170.354 192.368,168.552 189.449,168.022 188.524 C 167.492 187.599,166.185 185.785,165.117 184.493 C 164.049 183.200,162.790 181.649,162.320 181.046 C 160.695 178.958,155.135 172.362,153.581 170.677 C 152.722 169.746,151.572 168.279,151.023 167.415 C 149.780 165.457,143.973 159.374,141.294 157.222 C 137.532 154.201,134.336 151.695,131.606 149.624 C 126.670 145.880,122.174 140.823,118.208 134.557 C 117.573 133.555,116.583 132.364,116.006 131.910 L 114.957 131.085 115.564 132.178 C 115.897 132.779,116.539 133.733,116.989 134.298 C 117.897 135.439,117.745 135.908,116.587 135.541 C 115.891 135.320,114.662 133.455,114.662 132.620 C 114.662 132.429,114.154 131.765,113.534 131.145 C 112.781 130.392,112.406 129.642,112.406 128.887 C 112.406 127.425,113.136 127.640,113.986 129.351 C 114.616 130.620,114.626 130.624,114.644 129.625 C 114.707 126.088,104.727 113.662,99.161 110.346 C 94.658 107.664,82.667 106.666,76.698 108.476 M72.556 112.765 C 72.556 113.166,70.008 113.743,69.682 113.416 C 69.567 113.302,69.585 113.027,69.721 112.807 C 70.029 112.309,72.556 112.272,72.556 112.765 M83.444 115.218 C 86.130 116.607,86.792 119.225,85.161 122.008 C 83.296 125.191,79.412 125.483,76.805 122.636 C 73.159 118.656,78.517 112.670,83.444 115.218 M198.120 248.882 C 198.120 249.083,198.741 249.248,199.499 249.248 C 201.110 249.248,201.055 249.074,199.342 248.748 C 198.640 248.614,198.120 248.671,198.120 248.882 " stroke="none" fill="#a5b04e" fill-rule="evenodd"></path><path id="path3" d="M322.461 103.997 C 311.549 105.456,304.300 108.983,293.609 118.033 C 279.857 129.675,270.751 141.603,267.655 152.034 C 266.630 155.487,265.997 156.200,263.249 156.999 C 243.401 162.769,218.539 189.369,215.005 208.616 C 208.714 242.879,240.241 268.721,272.553 255.788 C 289.111 249.161,309.935 227.533,315.409 211.278 C 316.832 207.054,317.123 206.757,321.153 205.427 C 337.596 199.998,360.080 178.159,366.136 161.734 C 375.900 135.253,358.545 105.861,332.011 103.938 C 326.658 103.550,325.757 103.556,322.461 103.997 M334.055 105.047 C 340.009 106.095,345.156 108.143,350.122 111.439 C 354.615 114.421,353.631 114.754,348.241 112.075 C 343.492 109.715,340.830 108.643,338.722 108.242 C 337.791 108.064,335.846 107.660,334.399 107.343 C 328.827 106.123,320.421 106.770,313.534 108.948 C 308.330 110.594,306.286 111.606,300.791 115.256 C 299.882 115.859,298.529 116.755,297.783 117.245 C 297.038 117.736,296.006 118.520,295.489 118.989 C 294.972 119.457,294.126 119.952,293.609 120.089 C 292.605 120.355,295.937 116.998,298.362 115.300 C 311.773 105.914,322.109 102.945,334.055 105.047 M76.280 108.028 C 69.605 110.005,65.815 113.221,64.881 117.701 C 64.770 118.235,63.346 120.012,61.718 121.649 C 56.494 126.901,55.107 131.784,56.424 140.276 C 57.634 148.071,62.030 151.542,62.030 144.703 C 62.030 142.736,62.433 142.640,65.133 143.960 C 67.799 145.264,70.519 145.865,73.760 145.865 C 76.721 145.865,77.074 146.108,79.078 149.525 C 82.039 154.577,82.630 156.717,85.718 173.578 C 89.035 191.688,92.693 198.808,103.325 207.846 C 105.911 210.044,108.610 212.359,109.322 212.991 L 110.618 214.140 111.165 219.570 C 112.009 227.961,112.740 231.797,113.761 233.191 C 115.314 235.311,115.521 235.943,115.251 237.746 C 114.602 242.070,110.674 242.987,100.752 241.129 C 96.014 240.242,96.111 240.224,89.601 243.284 C 88.459 243.821,87.887 244.394,87.484 245.404 C 86.567 247.705,87.500 248.395,89.872 247.169 C 91.545 246.304,94.174 248.262,94.426 250.561 C 94.578 251.953,95.532 252.212,96.593 251.151 C 97.457 250.287,98.527 250.165,99.705 250.795 C 101.051 251.516,103.272 251.230,105.733 250.019 C 108.110 248.850,114.416 247.373,114.912 247.870 C 115.060 248.018,114.969 248.728,114.709 249.447 C 113.842 251.845,115.189 253.112,117.083 251.680 C 118.093 250.916,120.299 250.990,122.512 251.862 C 124.555 252.668,125.374 252.567,128.097 251.178 C 130.860 249.768,131.075 249.937,130.417 253.003 C 129.862 255.592,130.172 255.879,133.888 256.208 L 136.920 256.476 138.855 254.592 C 142.595 250.950,147.579 249.610,151.863 251.092 C 154.458 251.990,155.504 251.919,157.178 250.727 C 157.859 250.242,158.823 250.000,160.074 250.000 C 163.238 250.000,162.788 248.130,159.151 246.167 C 156.070 244.505,154.565 244.206,152.425 244.830 C 148.219 246.058,144.054 242.681,146.571 240.084 C 147.944 238.668,149.439 235.151,149.795 232.501 C 150.198 229.499,149.953 229.583,155.856 230.430 C 175.340 233.227,175.523 233.283,178.185 237.203 C 183.973 245.726,192.244 250.253,201.498 249.964 C 203.466 249.902,206.046 249.989,207.232 250.157 C 213.261 251.008,213.887 248.909,208.729 245.137 C 205.826 243.014,205.103 242.057,205.039 240.252 C 205.006 239.322,204.689 238.709,203.906 238.059 C 194.063 229.883,189.530 224.791,186.842 218.895 C 184.931 214.703,184.020 213.143,181.686 210.071 C 180.788 208.891,178.988 205.930,177.685 203.493 C 176.381 201.055,174.483 197.791,173.466 196.241 C 172.449 194.690,171.533 193.247,171.429 193.035 C 171.096 192.353,165.436 184.068,164.373 182.707 C 161.227 178.676,158.476 175.298,157.878 174.729 C 157.504 174.373,156.720 173.443,156.137 172.661 C 155.553 171.880,154.705 170.940,154.252 170.573 C 153.799 170.206,152.632 168.683,151.658 167.190 C 149.752 164.268,142.374 156.741,139.520 154.808 C 138.564 154.161,137.162 153.110,136.404 152.473 C 135.646 151.837,134.225 150.724,133.248 150.000 C 131.441 148.663,126.700 144.415,125.486 143.045 C 123.268 140.543,120.457 136.606,118.406 133.130 C 116.047 129.133,115.435 128.153,111.572 122.180 C 106.516 114.365,100.335 109.219,94.789 108.206 C 89.891 107.312,88.678 107.197,84.023 107.190 C 80.037 107.184,78.608 107.339,76.280 108.028 M93.833 108.416 C 100.829 109.725,107.450 116.070,114.276 128.008 C 116.815 132.446,118.697 135.530,119.737 136.953 C 123.971 142.749,127.475 146.490,131.606 149.624 C 134.336 151.695,137.532 154.201,141.294 157.222 C 143.973 159.374,149.780 165.457,151.023 167.415 C 151.572 168.279,152.722 169.746,153.581 170.677 C 155.135 172.362,160.695 178.958,162.320 181.046 C 162.790 181.649,164.049 183.200,165.117 184.493 C 166.185 185.785,167.492 187.599,168.022 188.524 C 168.552 189.449,170.354 192.368,172.027 195.009 C 173.700 197.651,176.048 201.588,177.245 203.759 C 178.441 205.930,179.948 208.444,180.593 209.344 C 182.979 212.672,184.585 215.548,187.343 221.429 C 188.485 223.863,193.340 230.029,195.599 231.914 C 200.940 236.372,204.135 239.586,204.135 240.500 C 204.135 241.901,205.440 243.774,207.445 245.252 C 211.681 248.374,212.051 249.395,208.928 249.342 C 207.843 249.324,205.123 249.291,202.885 249.269 C 191.960 249.160,184.785 245.501,178.850 237.011 C 176.062 233.023,175.046 232.567,165.949 231.220 C 163.277 230.825,158.757 230.142,155.905 229.704 C 149.411 228.705,149.392 228.711,149.052 231.687 C 148.706 234.705,147.251 238.333,145.845 239.680 C 144.415 241.051,144.445 242.060,145.959 243.478 C 148.606 245.958,150.004 246.344,153.047 245.432 C 154.291 245.060,154.788 245.114,156.652 245.828 C 160.430 247.273,162.756 249.586,159.980 249.136 C 158.950 248.969,158.347 249.152,157.066 250.020 C 155.127 251.334,154.462 251.371,151.720 250.322 C 147.911 248.864,141.838 250.536,138.446 253.977 L 136.742 255.705 134.066 255.446 C 130.765 255.127,130.739 255.102,131.306 252.816 C 131.734 251.088,131.915 250.879,133.835 249.905 L 135.902 248.855 133.425 249.004 C 131.592 249.113,130.140 249.516,127.847 250.551 C 126.143 251.321,124.466 251.861,124.122 251.752 C 123.778 251.643,122.820 251.296,121.992 250.981 C 120.006 250.225,117.670 250.229,116.584 250.990 C 115.850 251.504,115.654 251.520,115.378 251.084 C 114.916 250.353,114.944 250.220,115.789 249.146 C 118.052 246.269,112.046 246.337,105.827 249.259 C 102.639 250.758,101.824 250.896,100.195 250.215 C 98.394 249.463,97.413 249.468,96.566 250.234 C 95.681 251.035,94.737 250.638,94.737 249.465 C 94.737 248.795,94.242 248.153,92.991 247.198 C 91.000 245.677,90.948 245.666,89.476 246.427 C 88.066 247.156,87.614 246.521,88.601 245.198 C 89.442 244.072,89.444 244.071,93.566 242.268 C 96.366 241.043,96.871 240.933,98.077 241.277 C 103.403 242.799,111.724 243.134,113.388 241.894 C 116.248 239.762,116.991 236.325,115.102 233.966 C 113.674 232.182,112.901 229.308,112.390 223.885 C 111.953 219.244,111.366 214.809,111.057 213.818 C 110.945 213.457,109.638 212.217,108.152 211.062 C 94.432 200.392,89.960 192.810,86.661 174.624 C 82.254 150.329,79.967 145.113,73.724 145.113 C 70.390 145.113,67.068 144.344,64.711 143.026 C 62.170 141.606,61.278 142.147,61.278 145.107 C 61.278 148.046,59.853 148.201,58.634 145.395 C 56.052 139.450,56.119 130.727,58.782 126.183 C 59.757 124.520,63.728 120.301,64.319 120.301 C 64.813 120.301,66.165 117.451,66.165 116.409 C 66.165 115.158,69.112 111.959,71.550 110.565 C 76.774 107.575,85.066 106.776,93.833 108.416 M326.986 109.612 L 328.383 110.200 327.444 110.721 C 326.927 111.007,325.742 111.356,324.812 111.495 C 322.208 111.887,315.606 114.137,312.634 115.647 C 301.352 121.376,288.667 133.193,274.107 151.535 C 270.200 156.458,269.387 156.487,270.707 151.658 C 272.570 144.836,277.388 137.975,286.696 128.889 C 291.224 124.468,297.154 119.346,298.684 118.533 C 299.305 118.204,300.489 117.352,301.316 116.639 C 305.219 113.275,314.191 109.992,321.026 109.426 C 323.005 109.262,324.841 109.104,325.106 109.075 C 325.371 109.046,326.217 109.288,326.986 109.612 M338.910 113.306 C 349.381 115.672,358.243 122.769,362.952 132.559 C 363.737 134.191,364.781 136.330,365.272 137.312 C 365.764 138.294,366.165 139.442,366.165 139.863 C 366.165 140.284,366.430 141.032,366.754 141.526 C 368.925 144.839,367.789 156.021,364.512 163.601 C 357.431 179.980,336.291 199.692,320.256 204.868 C 316.181 206.183,315.725 206.564,315.045 209.211 C 312.234 220.162,305.117 230.174,291.593 242.203 C 283.918 249.029,277.652 253.109,271.037 255.588 C 243.973 265.730,216.210 247.980,215.139 219.850 C 214.920 214.107,215.404 211.487,215.820 216.165 C 216.967 229.083,220.442 235.606,230.462 243.647 C 242.608 253.395,260.963 253.888,276.236 244.876 C 286.154 239.025,302.371 222.693,308.104 212.782 C 310.840 208.051,312.086 206.722,313.516 207.007 C 317.766 207.853,315.843 184.009,311.278 179.249 C 310.761 178.710,309.328 177.110,308.093 175.695 C 299.357 165.680,293.777 162.108,288.182 162.947 C 285.169 163.398,286.163 165.582,291.664 170.602 C 295.365 173.979,297.029 176.577,297.804 180.190 C 298.032 181.251,298.556 182.768,298.969 183.561 C 300.512 186.520,299.292 186.953,297.447 184.101 C 293.912 178.634,284.211 171.695,284.211 174.633 C 284.211 179.053,295.431 189.854,299.073 188.940 C 301.823 188.250,302.453 202.761,299.851 206.871 C 299.560 207.331,299.211 208.239,299.076 208.890 C 298.940 209.540,298.501 210.370,298.099 210.734 C 297.221 211.528,297.190 211.305,297.932 209.528 C 299.054 206.844,298.679 206.424,293.778 204.869 C 281.789 201.064,271.580 190.621,267.829 178.324 C 266.322 173.386,266.090 173.335,260.514 176.721 C 248.061 184.285,235.626 198.295,231.597 209.300 C 230.575 212.093,230.197 212.025,229.853 208.987 C 229.672 207.385,229.479 206.836,229.197 207.119 C 226.757 209.559,228.212 201.098,231.113 195.979 C 236.723 186.078,255.743 168.737,263.628 166.334 C 266.096 165.582,267.316 159.785,265.107 159.307 C 264.305 159.134,254.979 162.213,254.173 162.917 C 253.304 163.677,251.092 164.751,250.864 164.523 C 250.687 164.346,254.604 161.654,255.038 161.654 C 255.141 161.654,255.953 161.179,256.842 160.599 C 258.215 159.702,260.615 158.803,264.570 157.703 C 265.650 157.402,267.669 155.715,267.669 155.114 C 267.669 154.861,267.933 154.327,268.255 153.925 C 268.801 153.246,268.825 153.316,268.613 154.946 C 268.375 156.775,268.723 160.526,269.130 160.526 C 269.640 160.526,273.991 156.137,274.534 155.074 C 274.851 154.454,275.467 153.624,275.901 153.230 C 276.336 152.837,276.692 152.311,276.692 152.061 C 276.692 151.811,277.157 150.997,277.726 150.251 C 278.294 149.506,279.259 148.087,279.869 147.098 C 284.551 139.516,298.495 125.814,307.696 119.755 C 313.104 116.193,318.778 113.870,324.782 112.759 C 327.112 112.327,336.122 112.677,338.910 113.306 M289.780 123.762 C 285.325 128.159,283.835 129.470,283.835 128.995 C 283.835 128.398,291.780 120.677,292.394 120.677 C 292.675 120.677,291.499 122.065,289.780 123.762 M321.617 121.379 C 309.954 124.447,293.635 138.586,285.830 152.386 C 283.959 155.693,284.315 156.636,287.782 157.564 C 295.021 159.501,304.857 166.704,309.051 173.139 C 311.207 176.447,312.406 178.659,312.406 179.326 C 312.406 179.714,312.570 180.132,312.771 180.257 C 313.225 180.537,314.331 183.010,315.218 185.726 C 316.128 188.513,316.438 188.837,317.962 188.590 C 321.069 188.085,330.151 181.617,336.528 175.366 C 338.526 173.407,340.271 171.805,340.407 171.805 C 342.257 171.805,330.568 183.340,323.120 188.862 C 314.577 195.198,315.025 199.840,323.800 195.899 C 335.960 190.436,353.260 172.756,356.772 162.201 C 358.263 157.722,355.456 150.420,353.383 153.388 C 353.073 153.832,352.368 154.732,351.816 155.387 L 350.813 156.579 351.395 154.511 C 352.263 151.426,352.267 142.648,351.401 139.474 C 347.827 126.369,334.175 118.075,321.617 121.379 M334.949 122.740 C 353.521 129.057,357.127 153.235,341.765 168.443 C 341.022 169.179,338.891 171.357,337.030 173.282 C 330.129 180.424,320.183 187.805,317.831 187.529 C 316.889 187.418,316.704 187.140,315.974 184.744 C 311.933 171.471,302.248 161.780,287.995 156.745 C 285.353 155.812,285.206 155.499,286.352 153.239 C 291.229 143.614,306.127 129.142,316.136 124.306 C 322.380 121.289,329.051 120.734,334.949 122.740 M282.500 130.929 C 282.399 131.192,281.964 131.627,281.532 131.897 C 280.719 132.405,280.764 132.110,281.684 130.921 C 282.157 130.308,282.736 130.314,282.500 130.929 M280.119 133.741 C 279.922 134.102,279.132 134.991,278.364 135.714 C 276.974 137.024,276.971 137.025,277.663 135.902 C 278.946 133.823,281.113 131.916,280.119 133.741 M354.859 158.218 C 355.593 159.589,353.943 165.812,352.039 168.858 C 345.109 179.943,326.098 195.865,319.792 195.865 C 317.694 195.865,319.512 193.659,325.247 189.245 C 335.883 181.060,346.021 170.338,350.535 162.500 C 351.518 160.794,352.449 159.398,352.604 159.398 C 352.760 159.398,353.080 158.976,353.315 158.459 C 353.824 157.342,354.346 157.260,354.859 158.218 M264.964 162.653 L 265.077 164.215 261.580 165.990 C 249.971 171.881,233.952 187.286,229.145 197.180 C 222.140 211.597,223.992 228.268,233.625 237.504 C 246.625 249.969,263.273 248.422,280.512 233.147 C 301.059 214.941,306.206 202.591,301.133 183.666 C 299.412 177.243,297.048 173.679,290.334 167.379 C 289.199 166.314,289.294 164.902,290.513 164.729 C 293.674 164.280,301.820 170.551,305.120 175.974 C 314.309 191.071,313.770 203.821,303.351 217.848 C 300.431 221.779,299.753 222.576,295.412 227.185 C 281.054 242.431,268.554 249.607,255.236 250.250 C 242.765 250.853,234.002 246.811,224.181 235.929 C 214.630 225.344,214.528 206.574,223.948 193.117 C 227.338 188.275,228.692 186.678,234.004 181.258 C 248.046 166.932,264.552 157.012,264.964 162.653 M249.113 166.079 C 248.784 166.613,245.489 168.848,245.489 168.538 C 245.489 168.084,248.231 165.820,248.800 165.804 C 249.071 165.796,249.212 165.920,249.113 166.079 M344.350 167.951 C 344.334 168.350,342.084 170.781,341.900 170.597 C 341.761 170.458,344.000 167.669,344.251 167.669 C 344.311 167.669,344.356 167.796,344.350 167.951 M245.113 169.089 C 245.113 169.544,243.594 170.734,243.187 170.599 C 242.988 170.532,243.177 170.100,243.607 169.637 C 244.388 168.799,245.113 168.535,245.113 169.089 M287.102 175.382 C 291.254 177.116,299.401 186.438,297.995 187.845 C 296.624 189.216,288.447 182.119,286.139 177.553 C 284.795 174.896,284.974 174.493,287.102 175.382 M267.162 178.383 C 270.861 190.904,280.812 201.078,293.773 205.590 C 297.607 206.925,297.855 207.163,297.154 208.841 C 293.221 218.253,275.518 235.280,265.691 239.103 C 244.137 247.488,225.005 228.356,233.487 206.898 C 237.065 197.846,250.285 183.675,261.364 177.016 C 265.626 174.455,266.030 174.550,267.162 178.383 M286.090 184.881 C 286.090 185.108,286.262 185.400,286.472 185.530 C 286.682 185.660,287.088 186.304,287.374 186.962 C 288.942 190.562,296.241 196.166,296.241 193.770 C 296.241 193.079,293.054 189.850,292.371 189.850 C 292.037 189.850,289.501 187.714,286.936 185.272 C 286.471 184.830,286.090 184.653,286.090 184.881 M296.992 212.736 C 296.992 212.917,296.739 213.276,296.429 213.534 C 295.816 214.042,295.740 213.920,296.093 213.001 C 296.334 212.371,296.992 212.178,296.992 212.736 M295.113 215.511 C 295.113 216.093,293.234 218.172,292.958 217.895 C 292.799 217.736,294.670 215.165,295.019 215.065 C 295.070 215.050,295.113 215.251,295.113 215.511 M291.705 220.138 C 290.531 221.388,290.328 220.988,291.385 219.505 C 291.893 218.790,292.314 218.483,292.406 218.758 C 292.492 219.016,292.176 219.637,291.705 220.138 M231.942 227.304 C 231.949 227.537,232.221 227.948,232.546 228.218 C 232.872 228.488,233.456 229.332,233.844 230.094 C 234.779 231.927,238.044 235.467,240.410 237.216 C 248.616 243.278,258.802 243.961,268.421 239.094 C 269.558 238.519,270.742 237.949,271.053 237.826 C 271.363 237.704,271.997 237.328,272.462 236.990 C 272.928 236.651,273.306 236.522,273.303 236.702 C 273.292 237.474,266.712 241.263,263.158 242.545 C 252.355 246.442,236.789 241.718,233.214 233.459 C 232.900 232.735,232.485 231.889,232.290 231.579 C 230.829 229.251,230.306 227.410,230.422 225.000 L 230.477 223.872 231.203 225.376 C 231.603 226.203,231.935 227.070,231.942 227.304 M128.592 227.350 C 127.616 231.402,124.422 236.562,122.266 237.570 C 117.922 239.602,119.729 243.480,124.544 242.458 C 127.039 241.929,126.953 241.883,129.059 244.898 C 129.842 246.019,130.980 246.116,134.236 245.337 C 139.221 244.145,140.508 241.328,137.249 238.746 C 136.437 238.103,135.401 236.778,134.945 235.800 C 132.495 230.541,131.950 229.342,131.190 227.538 C 130.094 224.935,129.190 224.870,128.592 227.350 M132.730 232.820 C 134.220 236.104,135.212 237.737,136.545 239.106 C 139.238 241.870,138.560 243.592,134.393 244.572 C 130.756 245.427,130.220 245.328,129.126 243.595 C 127.814 241.515,126.774 241.094,124.437 241.693 C 122.216 242.262,121.204 242.008,120.902 240.806 C 120.557 239.429,120.998 238.765,122.535 238.352 C 124.450 237.836,126.891 234.162,129.141 228.408 C 129.862 226.564,129.926 226.643,132.730 232.820 M277.980 233.263 C 276.899 234.080,276.468 233.949,277.496 233.115 C 277.984 232.719,278.456 232.467,278.544 232.555 C 278.632 232.643,278.379 232.961,277.980 233.263 " stroke="none" fill="#979ea5" fill-rule="evenodd"></path><path id="path4" d="M320.489 105.107 C 312.710 106.411,307.891 108.631,298.362 115.300 C 295.937 116.998,292.605 120.355,293.609 120.089 C 294.126 119.952,294.972 119.457,295.489 118.989 C 296.006 118.520,297.038 117.736,297.783 117.245 C 298.529 116.755,299.882 115.859,300.791 115.256 C 306.286 111.606,308.330 110.594,313.534 108.948 C 320.421 106.770,328.827 106.123,334.399 107.343 C 335.846 107.660,337.791 108.064,338.722 108.242 C 340.830 108.643,343.492 109.715,348.241 112.075 C 353.631 114.754,354.615 114.421,350.122 111.439 C 341.319 105.596,330.880 103.365,320.489 105.107 M324.782 112.759 C 318.778 113.870,313.104 116.193,307.696 119.755 C 298.495 125.814,284.551 139.516,279.869 147.098 C 279.259 148.087,278.294 149.506,277.726 150.251 C 277.157 150.997,276.692 151.811,276.692 152.061 C 276.692 152.311,276.336 152.837,275.901 153.230 C 275.467 153.624,274.851 154.454,274.534 155.074 C 273.991 156.137,269.640 160.526,269.130 160.526 C 268.723 160.526,268.375 156.775,268.613 154.946 C 268.825 153.316,268.801 153.246,268.255 153.925 C 267.933 154.327,267.669 154.861,267.669 155.114 C 267.669 155.715,265.650 157.402,264.570 157.703 C 260.615 158.803,258.215 159.702,256.842 160.599 C 255.953 161.179,255.141 161.654,255.038 161.654 C 254.604 161.654,250.687 164.346,250.864 164.523 C 251.092 164.751,253.304 163.677,254.173 162.917 C 254.979 162.213,264.305 159.134,265.107 159.307 C 267.316 159.785,266.096 165.582,263.628 166.334 C 255.743 168.737,236.723 186.078,231.113 195.979 C 229.051 199.617,228.195 202.303,228.195 205.134 C 228.195 207.483,228.409 207.907,229.197 207.119 C 229.479 206.836,229.672 207.385,229.853 208.987 C 230.197 212.025,230.575 212.093,231.597 209.300 C 235.626 198.295,248.061 184.285,260.514 176.721 C 266.090 173.335,266.322 173.386,267.829 178.324 C 271.321 189.770,282.389 201.616,292.105 204.308 C 292.622 204.451,291.217 203.639,288.984 202.502 C 279.019 197.433,271.283 188.431,268.257 178.383 C 266.531 172.652,266.044 172.535,260.049 176.416 C 258.856 177.188,257.796 177.820,257.694 177.820 C 257.431 177.820,252.124 182.039,249.483 184.348 C 243.311 189.741,235.819 198.773,233.110 204.082 C 232.152 205.960,231.380 206.163,231.723 204.447 C 231.956 203.285,233.958 199.436,235.113 197.932 C 241.039 190.214,247.455 183.676,252.632 180.080 C 253.355 179.577,254.157 178.879,254.414 178.528 C 255.044 177.666,259.600 174.060,260.059 174.060 C 260.576 174.060,262.406 172.573,262.406 172.153 C 262.406 170.819,257.253 173.598,251.346 178.117 C 247.774 180.850,239.518 189.088,236.385 193.045 C 234.748 195.113,233.174 197.093,232.888 197.445 C 232.602 197.797,232.117 198.571,231.810 199.164 C 230.998 200.735,230.075 201.443,230.075 200.494 C 230.075 197.751,235.975 189.627,242.720 183.083 C 251.283 174.775,257.299 170.226,263.784 167.155 C 266.001 166.105,266.490 165.394,266.801 162.771 C 267.074 160.463,267.669 160.310,267.669 162.548 C 267.669 165.047,268.509 165.479,269.699 163.594 C 270.804 161.843,272.017 160.902,273.167 160.902 C 273.999 160.902,275.205 159.300,275.750 157.471 C 280.175 142.627,304.193 119.311,319.822 114.687 C 329.298 111.884,342.353 113.595,349.142 118.531 C 354.685 122.561,357.867 125.588,359.657 128.534 C 363.691 135.175,365.180 138.995,366.034 144.892 C 367.301 153.647,366.539 158.536,362.703 166.281 C 358.728 174.305,347.731 186.909,338.887 193.576 C 338.073 194.190,336.115 195.675,334.536 196.876 C 330.161 200.206,324.338 203.184,319.265 204.687 C 316.456 205.519,316.393 205.475,316.465 202.724 C 316.568 198.809,316.667 198.643,319.186 198.148 C 325.849 196.837,335.059 190.513,344.779 180.574 C 353.616 171.538,357.064 166.185,359.188 158.205 C 360.298 154.033,360.195 153.392,358.291 152.583 C 356.661 151.891,356.015 150.038,356.015 146.059 C 356.015 142.644,354.557 136.842,353.699 136.842 C 353.269 136.842,353.323 138.103,353.867 140.789 C 354.463 143.735,354.459 147.946,353.860 148.546 C 353.142 149.264,353.011 148.871,352.632 144.882 C 351.098 128.702,335.906 116.521,322.180 120.465 C 321.043 120.792,318.849 121.316,317.304 121.629 C 315.364 122.023,314.194 122.488,313.524 123.130 C 312.990 123.642,312.190 124.060,311.746 124.060 C 311.303 124.060,310.804 124.280,310.639 124.550 C 310.474 124.819,309.801 125.369,309.143 125.772 C 306.631 127.311,299.700 132.983,297.180 135.560 C 293.752 139.068,289.474 144.021,289.474 144.483 C 289.474 144.593,288.788 145.716,287.950 146.978 C 285.957 149.978,283.214 155.804,282.898 157.707 C 282.761 158.534,282.323 160.003,281.926 160.972 C 277.741 171.169,280.346 182.245,289.092 191.442 C 293.609 196.191,295.434 197.368,298.281 197.368 C 300.369 197.368,300.752 197.854,300.752 200.501 C 300.752 205.563,299.960 206.438,296.441 205.267 C 295.089 204.817,293.772 204.534,293.514 204.639 C 293.231 204.753,293.302 204.840,293.692 204.858 C 294.048 204.874,295.275 205.301,296.418 205.806 C 298.711 206.821,298.885 207.248,297.932 209.528 C 297.190 211.305,297.221 211.528,298.099 210.734 C 298.501 210.370,298.940 209.540,299.076 208.890 C 299.211 208.239,299.560 207.331,299.851 206.871 C 302.453 202.761,301.823 188.250,299.073 188.940 C 295.431 189.854,284.211 179.053,284.211 174.633 C 284.211 171.695,293.912 178.634,297.447 184.101 C 299.292 186.953,300.512 186.520,298.969 183.561 C 298.556 182.768,298.032 181.251,297.804 180.190 C 297.029 176.577,295.365 173.979,291.664 170.602 C 286.163 165.582,285.169 163.398,288.182 162.947 C 293.777 162.108,299.357 165.680,308.093 175.695 C 309.328 177.110,310.761 178.710,311.278 179.249 C 315.843 184.009,317.766 207.853,313.516 207.007 C 312.086 206.722,310.840 208.051,308.104 212.782 C 302.371 222.693,286.154 239.025,276.236 244.876 C 260.963 253.888,242.608 253.395,230.462 243.647 C 220.442 235.606,216.967 229.083,215.820 216.165 C 215.404 211.487,214.920 214.107,215.139 219.850 C 216.210 247.980,243.973 265.730,271.037 255.588 C 277.652 253.109,283.918 249.029,291.593 242.203 C 305.117 230.174,312.234 220.162,315.045 209.211 C 315.725 206.564,316.181 206.183,320.256 204.868 C 336.291 199.692,357.431 179.980,364.512 163.601 C 367.789 156.021,368.925 144.839,366.754 141.526 C 366.430 141.032,366.165 140.284,366.165 139.863 C 366.165 139.442,365.764 138.294,365.272 137.312 C 364.781 136.330,363.737 134.191,362.952 132.559 C 356.216 118.553,339.716 109.994,324.782 112.759 M65.244 119.138 C 64.913 119.778,64.496 120.301,64.317 120.301 C 63.728 120.301,59.755 124.523,58.782 126.183 C 56.119 130.727,56.052 139.450,58.634 145.395 C 59.853 148.201,61.278 148.046,61.278 145.107 C 61.278 142.147,62.170 141.606,64.711 143.026 C 67.068 144.344,70.390 145.113,73.724 145.113 C 79.967 145.113,82.254 150.329,86.661 174.624 C 89.960 192.810,94.432 200.392,108.152 211.062 C 109.638 212.217,110.945 213.457,111.057 213.818 C 111.366 214.809,111.953 219.244,112.390 223.885 C 112.901 229.308,113.674 232.182,115.102 233.966 C 116.991 236.325,116.248 239.762,113.388 241.894 C 111.724 243.134,103.403 242.799,98.077 241.277 C 96.871 240.933,96.366 241.043,93.566 242.268 C 89.444 244.071,89.442 244.072,88.601 245.198 C 87.614 246.521,88.066 247.156,89.476 246.427 C 90.948 245.666,91.000 245.677,92.991 247.198 C 94.242 248.153,94.737 248.795,94.737 249.465 C 94.737 250.638,95.681 251.035,96.566 250.234 C 97.413 249.468,98.394 249.463,100.195 250.215 C 101.824 250.896,102.639 250.758,105.827 249.259 C 112.046 246.337,118.052 246.269,115.789 249.146 C 114.944 250.220,114.916 250.353,115.378 251.084 C 115.654 251.520,115.850 251.504,116.584 250.990 C 117.673 250.227,120.012 250.226,121.992 250.987 C 122.820 251.305,123.919 251.643,124.436 251.738 C 125.478 251.929,123.115 250.931,121.055 250.310 C 120.332 250.092,118.852 250.006,117.765 250.118 C 115.391 250.363,115.309 250.068,117.311 248.483 C 119.085 247.077,119.090 247.095,116.743 246.656 C 114.291 246.198,109.277 247.248,105.267 249.059 L 102.196 250.445 99.953 249.606 C 98.074 248.904,97.550 248.840,96.727 249.215 C 95.790 249.642,95.140 249.334,95.119 248.453 C 95.100 247.712,91.489 245.489,90.306 245.489 C 88.654 245.489,89.197 244.635,91.288 243.945 C 92.046 243.694,93.653 243.023,94.860 242.452 C 96.564 241.646,97.279 241.487,98.057 241.741 C 103.254 243.437,112.263 243.640,114.167 242.105 C 116.785 239.995,117.369 236.107,115.434 233.673 C 113.762 231.569,113.651 231.056,112.228 218.846 C 111.519 212.774,112.009 213.623,106.767 209.375 C 92.969 198.192,90.455 193.151,85.692 167.105 C 83.773 156.616,82.905 153.714,80.452 149.599 C 77.738 145.046,77.516 144.896,73.072 144.623 C 69.104 144.379,66.482 143.722,64.440 142.460 C 62.354 141.171,61.539 141.548,61.049 144.030 C 60.289 147.876,59.785 147.664,58.261 142.859 C 55.549 134.311,58.074 124.775,64.024 121.098 C 64.717 120.670,65.489 119.870,65.739 119.322 C 66.387 117.900,65.965 117.744,65.244 119.138 M287.858 124.628 C 284.099 128.318,282.120 130.970,285.244 128.129 C 288.865 124.836,292.855 120.677,292.394 120.677 C 292.112 120.677,290.071 122.455,287.858 124.628 M334.782 121.910 C 343.239 124.854,349.104 131.052,351.401 139.474 C 352.267 142.648,352.263 151.426,351.395 154.511 L 350.813 156.579 351.816 155.387 C 352.368 154.732,353.073 153.832,353.383 153.388 C 355.456 150.420,358.263 157.722,356.772 162.201 C 353.260 172.756,335.960 190.436,323.800 195.899 C 315.025 199.840,314.577 195.198,323.120 188.862 C 330.568 183.340,342.257 171.805,340.407 171.805 C 340.271 171.805,338.526 173.407,336.528 175.366 C 330.151 181.617,321.069 188.085,317.962 188.590 C 316.438 188.837,316.128 188.513,315.218 185.726 C 314.331 183.010,313.225 180.537,312.771 180.257 C 312.570 180.132,312.406 179.714,312.406 179.326 C 312.406 178.659,311.207 176.447,309.051 173.139 C 304.857 166.704,295.021 159.501,287.782 157.564 C 283.595 156.444,283.665 155.521,288.514 147.932 C 293.936 139.445,308.710 126.452,316.917 122.953 C 322.772 120.457,329.482 120.065,334.782 121.910 M70.199 122.408 C 70.048 122.558,69.925 122.941,69.925 123.258 C 69.925 123.681,70.036 123.723,70.343 123.416 C 70.573 123.186,70.696 122.804,70.617 122.566 C 70.538 122.328,70.350 122.257,70.199 122.408 M114.666 129.728 C 114.664 130.279,115.066 131.076,115.602 131.579 C 116.782 132.688,116.783 132.454,115.606 130.396 C 114.772 128.936,114.670 128.864,114.666 129.728 M281.684 130.921 C 280.764 132.110,280.719 132.405,281.532 131.897 C 282.365 131.377,282.898 130.451,282.365 130.451 C 282.190 130.451,281.883 130.663,281.684 130.921 M279.123 133.935 C 277.376 135.854,276.813 137.176,278.364 135.714 C 279.814 134.348,280.694 133.078,280.182 133.089 C 280.020 133.093,279.543 133.473,279.123 133.935 M286.594 168.145 C 288.281 169.853,290.037 171.757,290.496 172.374 C 290.956 172.991,291.846 174.157,292.476 174.965 C 295.928 179.394,295.850 180.490,292.288 177.610 C 288.252 174.348,283.870 172.651,283.363 174.154 C 282.957 175.359,287.945 183.117,290.485 185.232 C 292.255 186.705,296.629 189.133,298.496 189.677 C 299.685 190.024,299.987 190.489,299.994 191.989 C 300.000 193.247,299.481 193.913,299.044 193.207 C 298.904 192.980,297.158 191.585,295.165 190.109 C 291.066 187.071,285.409 181.580,284.635 179.887 C 284.351 179.267,283.875 178.293,283.578 177.722 C 281.846 174.405,281.499 165.038,283.108 165.038 C 283.338 165.038,284.907 166.436,286.594 168.145 M246.898 167.025 C 246.123 167.690,245.489 168.370,245.489 168.538 C 245.489 168.848,248.784 166.613,249.113 166.079 C 249.570 165.340,248.165 165.940,246.898 167.025 M342.945 169.057 C 342.287 169.821,341.817 170.514,341.900 170.597 C 342.084 170.781,344.334 168.350,344.350 167.951 C 344.369 167.474,344.183 167.620,342.945 169.057 M243.607 169.637 C 243.177 170.100,242.988 170.532,243.187 170.599 C 243.594 170.734,245.113 169.544,245.113 169.089 C 245.113 168.535,244.388 168.799,243.607 169.637 M289.886 187.964 C 291.043 189.001,292.162 189.850,292.371 189.850 C 293.054 189.850,296.241 193.079,296.241 193.770 C 296.241 196.166,288.942 190.562,287.374 186.962 C 287.088 186.304,286.682 185.660,286.472 185.530 C 286.262 185.400,286.090 185.108,286.090 184.881 C 286.090 184.653,286.471 184.830,286.936 185.272 C 287.401 185.715,288.729 186.926,289.886 187.964 M274.060 186.865 C 274.060 188.476,279.963 194.694,282.783 196.055 C 285.561 197.395,285.406 197.144,281.013 193.203 C 278.842 191.255,276.741 189.125,276.345 188.469 C 275.562 187.174,274.060 186.119,274.060 186.865 M312.966 213.769 C 310.904 219.913,302.687 231.576,296.711 236.842 C 295.890 237.566,293.519 239.711,291.443 241.609 C 271.587 259.759,250.914 263.181,232.886 251.301 C 224.365 245.686,215.119 231.096,216.276 225.091 C 216.412 224.387,216.447 224.422,216.490 225.304 C 216.628 228.150,221.898 236.893,225.615 240.443 C 238.335 252.592,255.354 255.479,271.696 248.258 C 281.930 243.736,298.263 228.655,308.132 214.616 C 310.692 210.973,311.145 210.577,311.773 211.435 C 312.213 212.037,312.291 212.028,312.949 211.301 C 314.035 210.101,314.039 210.574,312.966 213.769 M296.093 213.001 C 295.740 213.920,295.816 214.042,296.429 213.534 C 297.054 213.015,297.177 212.406,296.657 212.406 C 296.472 212.406,296.218 212.674,296.093 213.001 M293.842 216.394 C 293.246 217.110,292.849 217.786,292.958 217.895 C 293.234 218.172,295.113 216.093,295.113 215.511 C 295.113 214.878,295.088 214.895,293.842 216.394 M291.385 219.505 C 290.909 220.173,290.594 220.794,290.684 220.885 C 290.985 221.186,292.565 219.235,292.406 218.758 C 292.314 218.483,291.893 218.790,291.385 219.505 M230.422 225.000 C 230.306 227.410,230.829 229.251,232.290 231.579 C 232.485 231.889,232.900 232.735,233.214 233.459 C 236.789 241.718,252.355 246.442,263.158 242.545 C 266.712 241.263,273.292 237.474,273.303 236.702 C 273.306 236.522,272.928 236.651,272.462 236.990 C 271.997 237.328,271.363 237.704,271.053 237.826 C 270.742 237.949,269.558 238.519,268.421 239.094 C 258.802 243.961,248.616 243.278,240.410 237.216 C 238.044 235.467,234.779 231.927,233.844 230.094 C 233.456 229.332,232.872 228.488,232.546 228.218 C 232.221 227.948,231.949 227.537,231.942 227.304 C 231.935 227.070,231.603 226.203,231.203 225.376 L 230.477 223.872 230.422 225.000 M129.039 224.906 C 128.832 225.164,128.386 226.341,128.048 227.520 C 126.894 231.545,123.773 236.756,122.218 237.255 C 119.971 237.976,119.444 238.660,119.660 240.578 C 119.944 243.098,122.518 244.004,125.641 242.684 C 126.308 242.403,127.307 243.252,128.719 245.302 C 129.395 246.285,129.541 246.325,131.726 246.130 C 139.229 245.460,141.744 241.953,137.406 238.208 C 136.269 237.226,135.338 236.216,135.338 235.964 C 135.338 235.712,134.727 234.241,133.981 232.696 C 133.234 231.151,132.302 228.969,131.910 227.846 C 130.898 224.947,129.858 223.883,129.039 224.906 M131.190 227.538 C 131.950 229.342,132.495 230.541,134.945 235.800 C 135.401 236.778,136.437 238.103,137.249 238.746 C 140.508 241.328,139.221 244.145,134.236 245.337 C 130.980 246.116,129.842 246.019,129.059 244.898 C 126.953 241.883,127.039 241.929,124.544 242.458 C 119.729 243.480,117.922 239.602,122.266 237.570 C 124.422 236.562,127.616 231.402,128.592 227.350 C 129.190 224.870,130.094 224.935,131.190 227.538 M149.302 229.071 C 149.074 229.345,148.733 230.656,148.543 231.984 C 148.136 234.840,146.578 238.562,145.283 239.771 C 142.624 242.253,146.966 246.654,151.483 246.053 C 154.755 245.618,155.310 245.683,157.613 246.775 C 159.885 247.851,160.367 248.496,158.900 248.496 C 158.419 248.496,157.631 248.917,157.148 249.430 C 155.875 250.786,154.300 250.954,151.867 249.995 C 149.757 249.163,146.886 249.183,144.958 250.043 C 144.250 250.359,144.266 250.376,145.113 250.218 C 148.680 249.551,149.854 249.573,151.800 250.342 C 154.408 251.373,155.135 251.329,157.066 250.020 C 158.347 249.152,158.950 248.969,159.980 249.136 C 162.756 249.586,160.430 247.273,156.652 245.828 C 154.788 245.114,154.291 245.060,153.047 245.432 C 150.004 246.344,148.606 245.958,145.959 243.478 C 144.445 242.060,144.415 241.051,145.845 239.680 C 147.251 238.333,148.706 234.705,149.052 231.687 C 149.376 228.852,149.644 228.714,153.585 229.350 C 155.139 229.600,156.497 229.719,156.603 229.612 C 156.795 229.421,151.737 228.571,150.407 228.571 C 150.027 228.571,149.530 228.796,149.302 229.071 M158.647 230.086 C 159.577 230.250,162.714 230.736,165.618 231.167 C 174.644 232.505,176.172 233.110,178.255 236.178 C 179.517 238.036,180.672 239.273,179.840 237.876 C 176.819 232.801,175.928 232.377,164.661 230.639 C 159.133 229.787,154.568 229.367,158.647 230.086 M277.496 233.115 C 277.008 233.511,276.754 233.829,276.932 233.823 C 277.391 233.806,278.737 232.747,278.544 232.555 C 278.456 232.467,277.984 232.719,277.496 233.115 M181.088 240.047 C 182.715 242.148,185.723 244.904,187.253 245.695 C 188.761 246.475,192.191 247.435,191.923 247.001 C 191.821 246.837,191.109 246.584,190.341 246.440 C 187.905 245.983,185.986 244.731,182.909 241.589 C 181.263 239.909,180.443 239.215,181.088 240.047 M195.113 248.148 C 198.152 249.045,198.766 249.028,196.805 248.100 C 195.977 247.708,194.709 247.397,193.985 247.407 C 192.849 247.423,193.004 247.525,195.113 248.148 M132.331 248.384 C 131.265 248.567,125.488 251.177,125.693 251.383 C 125.767 251.456,126.962 250.986,128.348 250.338 C 130.153 249.493,131.582 249.115,133.385 249.007 L 135.902 248.855 133.835 249.905 C 131.915 250.879,131.734 251.088,131.306 252.816 C 130.739 255.102,130.765 255.127,134.066 255.446 L 136.742 255.705 138.439 253.984 C 139.372 253.037,141.044 251.840,142.154 251.323 C 143.265 250.806,143.956 250.382,143.691 250.380 C 142.650 250.372,139.220 252.438,137.928 253.852 L 136.566 255.342 134.166 255.021 C 130.471 254.526,130.542 251.772,134.281 250.552 C 138.778 249.085,137.370 247.519,132.331 248.384 " stroke="none" fill="#768593" fill-rule="evenodd"></path></g></svg>